<?xml version="1.0" encoding="UTF-8" standalone="no"?>
<!DOCTYPE svg PUBLIC "-//W3C//DTD SVG 1.1//EN"
 "http://www.w3.org/Graphics/SVG/1.1/DTD/svg11.dtd">
<!-- Generated by graphviz version 2.40.1 (20161225.0304)
 -->
<!-- Title: graphname Pages: 1 -->
<svg width="1474pt" height="260pt"
 viewBox="0.00 0.00 1473.99 260.00" xmlns="http://www.w3.org/2000/svg" xmlns:xlink="http://www.w3.org/1999/xlink">
<g id="graph0" class="graph" transform="scale(1 1) rotate(0) translate(4 256)">
<title>graphname</title>
<polygon fill="#ffffff" stroke="transparent" points="-4,4 -4,-256 1469.9873,-256 1469.9873,4 -4,4"/>
<!-- package_c -->
<g id="node1" class="node">
<title>package_c</title>
<g id="a_node1"><a xlink:href="./package_c/index.html" xlink:title="package_c">
<ellipse fill="none" stroke="#000000" cx="162.0957" cy="-234" rx="48.1917" ry="18"/>
<text text-anchor="middle" x="162.0957" y="-230.3" font-family="Times,serif" font-size="14.00" fill="#000000">package_c</text>
</a>
</g>
</g>
<!-- package_b -->
<g id="node2" class="node">
<title>package_b</title>
<g id="a_node2"><a xlink:href="./package_b/index.html" xlink:title="package_b">
<ellipse fill="none" stroke="#000000" cx="86.0957" cy="-162" rx="48.1917" ry="18"/>
<text text-anchor="middle" x="86.0957" y="-158.3" font-family="Times,serif" font-size="14.00" fill="#000000">package_b</text>
</a>
</g>
</g>
<!-- package_c&#45;&gt;package_b -->
<g id="edge3" class="edge">
<title>package_c&#45;&gt;package_b</title>
<path fill="none" stroke="#0000ff" d="M143.397,-217.663C133.6482,-208.4273 121.4457,-196.8669 110.7525,-186.7366"/>
<path fill="none" stroke="#ff0000" d="M144.7725,-216.2111C135.0237,-206.9753 122.8212,-195.415 112.128,-185.2847"/>
<polygon fill="#0000ff" stroke="#0000ff" points="113.6441,-183.2771 103.9774,-178.9405 108.8298,-188.3588 113.6441,-183.2771"/>
</g>
<!-- ariles2_yamlcpp_catkin -->
<g id="node5" class="node">
<title>ariles2_yamlcpp_catkin</title>
<g id="a_node5"><a xlink:href="./ariles2_yamlcpp_catkin/index.html" xlink:title="ariles2_yamlcpp_catkin">
<ellipse fill="none" stroke="#000000" cx="285.0957" cy="-162" rx="94.7833" ry="18"/>
<text text-anchor="middle" x="285.0957" y="-158.3" font-family="Times,serif" font-size="14.00" fill="#000000">ariles2_yamlcpp_catkin</text>
</a>
</g>
</g>
<!-- package_c&#45;&gt;ariles2_yamlcpp_catkin -->
<g id="edge1" class="edge">
<title>package_c&#45;&gt;ariles2_yamlcpp_catkin</title>
<path fill="none" stroke="#0000ff" d="M187.6757,-217.8676C204.7214,-207.8897 227.2731,-194.6886 246.3329,-183.5317"/>
<path fill="none" stroke="#ff0000" d="M188.686,-219.5937C205.7317,-209.6157 228.2835,-196.4147 247.3432,-185.2578"/>
<polygon fill="#0000ff" stroke="#0000ff" points="248.733,-187.3411 255.5951,-179.2687 245.1968,-181.3 248.733,-187.3411"/>
</g>
<!-- staticoma -->
<g id="node11" class="node">
<title>staticoma</title>
<g id="a_node11"><a xlink:href="./staticoma/index.html" xlink:title="staticoma">
<ellipse fill="none" stroke="#000000" cx="124.0957" cy="-18" rx="44.6926" ry="18"/>
<text text-anchor="middle" x="124.0957" y="-14.3" font-family="Times,serif" font-size="14.00" fill="#000000">staticoma</text>
</a>
</g>
</g>
<!-- package_c&#45;&gt;staticoma -->
<g id="edge2" class="edge">
<title>package_c&#45;&gt;staticoma</title>
<path fill="none" stroke="#0000ff" d="M157.9364,-216.1287C151.3143,-178.4877 135.9863,-91.36 128.0587,-46.2978"/>
<path fill="none" stroke="#ff0000" d="M159.9061,-215.7822C153.2841,-178.1411 137.956,-91.0134 130.0284,-45.9513"/>
<polygon fill="#0000ff" stroke="#0000ff" points="132.4677,-45.3874 127.2879,-36.1451 125.5736,-46.6003 132.4677,-45.3874"/>
</g>
<!-- package_a -->
<g id="node4" class="node">
<title>package_a</title>
<g id="a_node4"><a xlink:href="./package_a/index.html" xlink:title="package_a">
<ellipse fill="none" stroke="#000000" cx="48.0957" cy="-90" rx="48.1917" ry="18"/>
<text text-anchor="middle" x="48.0957" y="-86.3" font-family="Times,serif" font-size="14.00" fill="#000000">package_a</text>
</a>
</g>
</g>
<!-- package_b&#45;&gt;package_a -->
<g id="edge5" class="edge">
<title>package_b&#45;&gt;package_a</title>
<path fill="none" stroke="#0000ff" d="M75.8181,-144.669C71.4791,-136.4477 66.233,-126.5078 61.4245,-117.3969"/>
<path fill="none" stroke="#ff0000" d="M77.5869,-143.7355C73.2479,-135.5142 68.0018,-125.5743 63.1933,-116.4634"/>
<polygon fill="#0000ff" stroke="#0000ff" points="65.2756,-115.0527 57.5126,-107.8425 59.0849,-118.3201 65.2756,-115.0527"/>
</g>
<!-- package_b&#45;&gt;staticoma -->
<g id="edge4" class="edge">
<title>package_b&#45;&gt;staticoma</title>
<path fill="none" stroke="#0000ff" d="M92.0846,-143.8376C95.9702,-133.4175 100.7202,-119.9175 104.1328,-107.7302 109.8527,-87.3248 114.761,-63.8066 118.1478,-45.964"/>
<path fill="none" stroke="#ff0000" d="M93.9586,-144.5364C97.8568,-134.0813 102.6068,-120.5813 106.0586,-108.2698 111.8105,-87.7334 116.7188,-64.2153 120.1127,-46.337"/>
<polygon fill="#0000ff" stroke="#0000ff" points="122.6126,-46.5672 120.9923,-36.097 115.7296,-45.2923 122.6126,-46.5672"/>
</g>
<!-- ariles2_catkin_demo -->
<g id="node3" class="node">
<title>ariles2_catkin_demo</title>
<g id="a_node3"><a xlink:href="./ariles2_catkin_demo/index.html" xlink:title="ariles2_catkin_demo">
<ellipse fill="none" stroke="#000000" cx="707.0957" cy="-234" rx="84.485" ry="18"/>
<text text-anchor="middle" x="707.0957" y="-230.3" font-family="Times,serif" font-size="14.00" fill="#000000">ariles2_catkin_demo</text>
</a>
</g>
</g>
<!-- ariles2_catkin_demo&#45;&gt;ariles2_yamlcpp_catkin -->
<g id="edge10" class="edge">
<title>ariles2_catkin_demo&#45;&gt;ariles2_yamlcpp_catkin</title>
<path fill="none" stroke="#0000ff" d="M640.531,-223.7739C576.1909,-212.8944 475.8582,-195.8895 388.9268,-180.9856 381.2434,-179.6684 373.2423,-178.2919 365.2404,-176.9122"/>
<path fill="none" stroke="#ff0000" d="M640.8644,-221.8019C576.5251,-210.9225 476.1924,-193.9176 389.2647,-179.0144 381.5825,-177.6973 373.5814,-176.3209 365.5802,-174.9413"/>
<polygon fill="#0000ff" stroke="#0000ff" points="365.7482,-172.4334 355.2987,-174.1817 364.5577,-179.3315 365.7482,-172.4334"/>
</g>
<!-- ariles2_rosparam_catkin -->
<g id="node6" class="node">
<title>ariles2_rosparam_catkin</title>
<g id="a_node6"><a xlink:href="./ariles2_rosparam_catkin/index.html" xlink:title="ariles2_rosparam_catkin">
<ellipse fill="none" stroke="#000000" cx="495.0957" cy="-162" rx="97.4827" ry="18"/>
<text text-anchor="middle" x="495.0957" y="-158.3" font-family="Times,serif" font-size="14.00" fill="#000000">ariles2_rosparam_catkin</text>
</a>
</g>
</g>
<!-- ariles2_catkin_demo&#45;&gt;ariles2_rosparam_catkin -->
<g id="edge9" class="edge">
<title>ariles2_catkin_demo&#45;&gt;ariles2_rosparam_catkin</title>
<path fill="none" stroke="#0000ff" d="M661.8144,-219.6775C629.4846,-208.6976 585.6628,-193.8147 551.0154,-182.0477"/>
<path fill="none" stroke="#ff0000" d="M662.4576,-217.7838C630.1277,-206.8038 586.306,-191.921 551.6585,-180.1539"/>
<polygon fill="#0000ff" stroke="#0000ff" points="552.4194,-177.7721 541.825,-177.8703 550.1683,-184.4003 552.4194,-177.7721"/>
</g>
<!-- ariles2_rapidjson_catkin -->
<g id="node7" class="node">
<title>ariles2_rapidjson_catkin</title>
<g id="a_node7"><a xlink:href="./ariles2_rapidjson_catkin/index.html" xlink:title="ariles2_rapidjson_catkin">
<ellipse fill="none" stroke="#000000" cx="707.0957" cy="-162" rx="96.6831" ry="18"/>
<text text-anchor="middle" x="707.0957" y="-158.3" font-family="Times,serif" font-size="14.00" fill="#000000">ariles2_rapidjson_catkin</text>
</a>
</g>
</g>
<!-- ariles2_catkin_demo&#45;&gt;ariles2_rapidjson_catkin -->
<g id="edge6" class="edge">
<title>ariles2_catkin_demo&#45;&gt;ariles2_rapidjson_catkin</title>
<path fill="none" stroke="#0000ff" d="M706.0957,-215.8314C706.0957,-208.131 706.0957,-198.9743 706.0957,-190.4166"/>
<path fill="none" stroke="#ff0000" d="M708.0957,-215.8314C708.0957,-208.131 708.0957,-198.9743 708.0957,-190.4166"/>
<polygon fill="#0000ff" stroke="#0000ff" points="710.5958,-190.4132 707.0957,-180.4133 703.5958,-190.4133 710.5958,-190.4132"/>
</g>
<!-- ariles2_octave_catkin -->
<g id="node8" class="node">
<title>ariles2_octave_catkin</title>
<g id="a_node8"><a xlink:href="./ariles2_octave_catkin/index.html" xlink:title="ariles2_octave_catkin">
<ellipse fill="none" stroke="#000000" cx="909.0957" cy="-162" rx="87.1846" ry="18"/>
<text text-anchor="middle" x="909.0957" y="-158.3" font-family="Times,serif" font-size="14.00" fill="#000000">ariles2_octave_catkin</text>
</a>
</g>
</g>
<!-- ariles2_catkin_demo&#45;&gt;ariles2_octave_catkin -->
<g id="edge8" class="edge">
<title>ariles2_catkin_demo&#45;&gt;ariles2_octave_catkin</title>
<path fill="none" stroke="#0000ff" d="M750.591,-217.4351C781.2967,-206.4905 822.5138,-191.7993 855.1743,-180.1579"/>
<path fill="none" stroke="#ff0000" d="M751.2625,-219.319C781.9682,-208.3744 823.1853,-193.6832 855.8458,-182.0418"/>
<polygon fill="#0000ff" stroke="#0000ff" points="857.1059,-184.2468 865.3503,-177.5924 854.7556,-177.6531 857.1059,-184.2468"/>
</g>
<!-- ariles2_core_catkin -->
<g id="node13" class="node">
<title>ariles2_core_catkin</title>
<g id="a_node13"><a xlink:href="./ariles2_core_catkin/index.html" xlink:title="ariles2_core_catkin">
<ellipse fill="none" stroke="#000000" cx="909.0957" cy="-90" rx="79.0865" ry="18"/>
<text text-anchor="middle" x="909.0957" y="-86.3" font-family="Times,serif" font-size="14.00" fill="#000000">ariles2_core_catkin</text>
</a>
</g>
</g>
<!-- ariles2_catkin_demo&#45;&gt;ariles2_core_catkin -->
<g id="edge7" class="edge">
<title>ariles2_catkin_demo&#45;&gt;ariles2_core_catkin</title>
<path fill="none" stroke="#0000ff" d="M769.5835,-220.8848C780.0415,-218.898 790.7793,-216.8811 800.9148,-215.0165 846.4285,-206.6727 975.5669,-214.2677 1004.3296,-179.3573 1014.4033,-167.9594 1012.1971,-158.0282 1004.2325,-144.5048 995.4989,-129.4156 980.3272,-118.0752 964.8048,-109.9587"/>
<path fill="none" stroke="#ff0000" d="M769.9568,-222.8497C780.4107,-220.8637 791.1485,-218.8468 801.2767,-216.9835 846.3111,-208.6692 975.4495,-216.2643 1005.8618,-180.6427 1016.3557,-167.5257 1014.1495,-157.5945 1005.9589,-143.4952 996.6963,-127.8136 981.5246,-116.4733 965.7328,-108.187"/>
<polygon fill="#0000ff" stroke="#0000ff" points="966.5625,-105.8105 956.037,-104.5999 963.5102,-112.1101 966.5625,-105.8105"/>
</g>
<!-- package_a&#45;&gt;staticoma -->
<g id="edge11" class="edge">
<title>package_a&#45;&gt;staticoma</title>
<path fill="none" stroke="#0000ff" d="M65.4189,-72.2111C75.2384,-62.9084 87.5473,-51.2474 98.2957,-41.0647"/>
<path fill="none" stroke="#ff0000" d="M66.7944,-73.663C76.6139,-64.3603 88.9227,-52.6993 99.6712,-42.5166"/>
<polygon fill="#0000ff" stroke="#0000ff" points="101.6238,-44.1105 106.4763,-34.6921 96.8096,-39.0288 101.6238,-44.1105"/>
</g>
<!-- ariles2_yamlcpp_catkin&#45;&gt;ariles2_core_catkin -->
<g id="edge12" class="edge">
<title>ariles2_yamlcpp_catkin&#45;&gt;ariles2_core_catkin</title>
<path fill="none" stroke="#0000ff" d="M353.3577,-148.4906C365.2082,-146.5168 377.4151,-144.6061 388.9587,-143.0094 541.9222,-121.8557 721.1839,-104.9723 824.2889,-96.0215"/>
<path fill="none" stroke="#ff0000" d="M353.6863,-150.4634C365.5175,-148.4927 377.7243,-146.582 389.2327,-144.9906 542.1098,-123.8469 721.3715,-106.9635 824.4619,-98.014"/>
<polygon fill="#0000ff" stroke="#0000ff" points="824.756,-100.498 834.4176,-96.1501 824.1534,-93.524 824.756,-100.498"/>
</g>
<!-- ariles2_rosparam_catkin&#45;&gt;ariles2_core_catkin -->
<g id="edge13" class="edge">
<title>ariles2_rosparam_catkin&#45;&gt;ariles2_core_catkin</title>
<path fill="none" stroke="#0000ff" d="M566.0935,-148.6375C641.4309,-135.5354 759.7451,-114.959 835.8117,-101.73"/>
<path fill="none" stroke="#ff0000" d="M566.4362,-150.608C641.7735,-137.5058 760.0878,-116.9294 836.1544,-103.7005"/>
<polygon fill="#0000ff" stroke="#0000ff" points="836.7132,-106.1409 845.9656,-100.9792 835.5137,-99.2444 836.7132,-106.1409"/>
</g>
<!-- ariles2_rapidjson_catkin&#45;&gt;ariles2_core_catkin -->
<g id="edge14" class="edge">
<title>ariles2_rapidjson_catkin&#45;&gt;ariles2_core_catkin</title>
<path fill="none" stroke="#0000ff" d="M751.5903,-145.0789C782.5589,-134.0406 823.858,-119.3201 856.3496,-107.739"/>
<path fill="none" stroke="#ff0000" d="M752.2618,-146.9628C783.2304,-135.9245 824.5295,-121.204 857.0211,-109.6229"/>
<polygon fill="#0000ff" stroke="#0000ff" points="858.2206,-111.8495 866.465,-105.1951 855.8704,-105.2558 858.2206,-111.8495"/>
</g>
<!-- ariles2_octave_catkin&#45;&gt;ariles2_core_catkin -->
<g id="edge15" class="edge">
<title>ariles2_octave_catkin&#45;&gt;ariles2_core_catkin</title>
<path fill="none" stroke="#0000ff" d="M908.0957,-143.8314C908.0957,-136.131 908.0957,-126.9743 908.0957,-118.4166"/>
<path fill="none" stroke="#ff0000" d="M910.0957,-143.8314C910.0957,-136.131 910.0957,-126.9743 910.0957,-118.4166"/>
<polygon fill="#0000ff" stroke="#0000ff" points="912.5958,-118.4132 909.0957,-108.4133 905.5958,-118.4133 912.5958,-118.4132"/>
</g>
<!-- ariles2_namevalue_catkin -->
<g id="node9" class="node">
<title>ariles2_namevalue_catkin</title>
<g id="a_node9"><a xlink:href="./ariles2_namevalue_catkin/index.html" xlink:title="ariles2_namevalue_catkin">
<ellipse fill="none" stroke="#000000" cx="1155.0957" cy="-162" rx="102.8821" ry="18"/>
<text text-anchor="middle" x="1155.0957" y="-158.3" font-family="Times,serif" font-size="14.00" fill="#000000">ariles2_namevalue_catkin</text>
</a>
</g>
</g>
<!-- ariles2_namevalue_catkin&#45;&gt;ariles2_core_catkin -->
<g id="edge16" class="edge">
<title>ariles2_namevalue_catkin&#45;&gt;ariles2_core_catkin</title>
<path fill="none" stroke="#0000ff" d="M1102.0417,-147.5139C1062.5233,-135.9476 1008.46,-120.1242 967.5679,-108.1558"/>
<path fill="none" stroke="#ff0000" d="M1102.6035,-145.5945C1063.0851,-134.0281 1009.0218,-118.2047 968.1297,-106.2363"/>
<polygon fill="#0000ff" stroke="#0000ff" points="968.5985,-103.7687 958.018,-104.3187 966.6322,-110.4869 968.5985,-103.7687"/>
</g>
<!-- ariles2_graphviz_catkin -->
<g id="node10" class="node">
<title>ariles2_graphviz_catkin</title>
<g id="a_node10"><a xlink:href="./ariles2_graphviz_catkin/index.html" xlink:title="ariles2_graphviz_catkin">
<ellipse fill="none" stroke="#000000" cx="1371.0957" cy="-162" rx="94.7833" ry="18"/>
<text text-anchor="middle" x="1371.0957" y="-158.3" font-family="Times,serif" font-size="14.00" fill="#000000">ariles2_graphviz_catkin</text>
</a>
</g>
</g>
<!-- ariles2_graphviz_catkin&#45;&gt;ariles2_core_catkin -->
<g id="edge17" class="edge">
<title>ariles2_graphviz_catkin&#45;&gt;ariles2_core_catkin</title>
<path fill="none" stroke="#0000ff" d="M1301.3142,-150.7227C1289.8363,-148.7624 1278.0548,-146.7877 1266.9359,-144.9871 1170.2062,-129.3229 1058.5088,-112.7088 985.9613,-102.1132"/>
<path fill="none" stroke="#ff0000" d="M1301.6509,-148.7513C1290.1669,-146.7899 1278.3854,-144.8152 1267.2556,-143.0129 1170.5005,-127.3446 1058.8031,-110.7306 986.2504,-100.1342"/>
<polygon fill="#0000ff" stroke="#0000ff" points="986.5347,-97.6493 976.1342,-99.6692 985.5243,-104.576 986.5347,-97.6493"/>
</g>
<!-- pkg_template -->
<g id="node12" class="node">
<title>pkg_template</title>
<g id="a_node12"><a xlink:href="./pkg_template/index.html" xlink:title="pkg_template">
<ellipse fill="none" stroke="#000000" cx="869.0957" cy="-234" rx="59.2899" ry="18"/>
<text text-anchor="middle" x="869.0957" y="-230.3" font-family="Times,serif" font-size="14.00" fill="#000000">pkg_template</text>
</a>
</g>
</g>
<!-- ariles2 -->
<g id="node14" class="node">
<title>ariles2</title>
<g id="a_node14"><a xlink:href="./ariles2/index.html" xlink:title="ariles2">
<ellipse fill="none" stroke="#000000" cx="981.0957" cy="-234" rx="34.394" ry="18"/>
<text text-anchor="middle" x="981.0957" y="-230.3" font-family="Times,serif" font-size="14.00" fill="#000000">ariles2</text>
</a>
</g>
</g>
</g>
</svg>
